<?xml version="1.0" encoding="utf-8"?>
<!-- Generator: Adobe Illustrator 24.1.1, SVG Export Plug-In . SVG Version: 6.00 Build 0)  -->
<svg version="1.1" id="Capa_1" xmlns="http://www.w3.org/2000/svg" xmlns:xlink="http://www.w3.org/1999/xlink" x="0px" y="0px"
	 viewBox="0 0 74.6 64.3" style="enable-background:new 0 0 74.6 64.3;" xml:space="preserve">
<style type="text/css">
	.st0{fill:none;stroke:#05007F;stroke-width:0.25;stroke-miterlimit:10;}
	.st1{fill-rule:evenodd;clip-rule:evenodd;fill:url(#SVGID_1_);}
	.st2{fill-rule:evenodd;clip-rule:evenodd;fill:url(#SVGID_2_);}
	.st3{fill-rule:evenodd;clip-rule:evenodd;fill:url(#SVGID_3_);}
	.st4{fill-rule:evenodd;clip-rule:evenodd;fill:url(#SVGID_4_);}
	.st5{fill-rule:evenodd;clip-rule:evenodd;fill:url(#SVGID_5_);}
	.st6{fill:none;stroke:#05007F;stroke-width:0.11;stroke-miterlimit:10;}
</style>
<path class="st0" d="M37.3,6.6L37.3,6.6c-6.7,0-11.1,2.5-14.7,0C36.3,16.1,36.1,20,36.1,29.2c-2.1-2-3.9-4.3-5.3-6.7
	c1,3.5,0.4,5.5,1.7,6.4c-11.2-8-18.3-11.2-29-20.8c8,9.5,14,16.2,23.8,24.2c-1.6,1-3.7-1.5-5.8-2.7c4.3,6.4,9.2,11.7,15.7,14.6l0,0
	l0,0l0,0l0,0c6.5-3,11.4-8.4,15.7-14.8c-2.1,1.2-4.6,2.2-6.2,3.2c11.2-7.1,16.4-15.2,24.5-24.7c-10.7,9.5-17.6,12.3-29.2,21
	c1.2-0.9,0.7-2.9,1.7-6.4c-1.5,2.5-3.2,4.7-5.3,6.7c0-9.2,0.8-14.1,13.7-22.6C48.4,9,43.1,6.6,37.3,6.6L37.3,6.6z"/>
<linearGradient id="SVGID_1_" gradientUnits="userSpaceOnUse" x1="58.17" y1="871.12" x2="68.27" y2="871.12" gradientTransform="matrix(1 0 0 1 -25.95 -814.62)">
	<stop  offset="0" style="stop-color:#00036A"/>
	<stop  offset="2.000000e-02" style="stop-color:#080473"/>
	<stop  offset="9.000000e-02" style="stop-color:#290795"/>
	<stop  offset="0.17" style="stop-color:#420AAF"/>
	<stop  offset="0.24" style="stop-color:#540CC2"/>
	<stop  offset="0.32" style="stop-color:#5E0DCD"/>
	<stop  offset="0.41" style="stop-color:#620DD1"/>
	<stop  offset="0.56" style="stop-color:#650CCE"/>
	<stop  offset="0.69" style="stop-color:#700BC6"/>
	<stop  offset="0.82" style="stop-color:#8108B7"/>
	<stop  offset="0.93" style="stop-color:#9A03A3"/>
	<stop  offset="1" style="stop-color:#AC0094"/>
	<stop  offset="1" style="stop-color:#A81093"/>
	<stop  offset="1" style="stop-color:#94698E"/>
	<stop  offset="1" style="stop-color:#8C8C8C"/>
</linearGradient>
<path class="st1" d="M37.2,48.6L37.2,48.6c1.2,2.4,3,4.6,5.1,6.2l-5.1,9.6l0,0l-5-9.5C34.3,53.5,35.6,51.5,37.2,48.6z"/>
<linearGradient id="SVGID_2_" gradientUnits="userSpaceOnUse" x1="26.9777" y1="856.42" x2="62.8964" y2="856.42" gradientTransform="matrix(1 0 0 1 -25.95 -814.62)">
	<stop  offset="0" style="stop-color:#00036A"/>
	<stop  offset="2.000000e-02" style="stop-color:#080473"/>
	<stop  offset="9.000000e-02" style="stop-color:#290795"/>
	<stop  offset="0.17" style="stop-color:#420AAF"/>
	<stop  offset="0.24" style="stop-color:#540CC2"/>
	<stop  offset="0.32" style="stop-color:#5E0DCD"/>
	<stop  offset="0.41" style="stop-color:#620DD1"/>
	<stop  offset="0.56" style="stop-color:#650CCE"/>
	<stop  offset="0.69" style="stop-color:#700BC6"/>
	<stop  offset="0.82" style="stop-color:#8108B7"/>
	<stop  offset="0.93" style="stop-color:#9A03A3"/>
	<stop  offset="1" style="stop-color:#AC0094"/>
	<stop  offset="1" style="stop-color:#A81093"/>
	<stop  offset="1" style="stop-color:#94698E"/>
	<stop  offset="1" style="stop-color:#8C8C8C"/>
</linearGradient>
<path class="st2" d="M19.9,58.7c7.3,0,13.9-4.2,17.1-10.8c-1.9-1-3.7-2-5.5-3.1c-3.5,5.8-11.1,7.7-17,4.1c-5.8-3.5-7.7-11.1-4.1-17
	c0.5-0.9,1.2-1.7,1.9-2.4c-1.3-1.5-2.7-3-4-4.6C0.1,31.3-1.4,43.2,5,51.4C8.6,56,14.1,58.7,19.9,58.7L19.9,58.7z"/>
<linearGradient id="SVGID_3_" gradientUnits="userSpaceOnUse" x1="38.3961" y1="854.0469" x2="53.2285" y2="854.0469" gradientTransform="matrix(1 0 0 1 -25.95 -814.62)">
	<stop  offset="0" style="stop-color:#00036A"/>
	<stop  offset="2.000000e-02" style="stop-color:#080473"/>
	<stop  offset="9.000000e-02" style="stop-color:#290795"/>
	<stop  offset="0.17" style="stop-color:#420AAF"/>
	<stop  offset="0.24" style="stop-color:#540CC2"/>
	<stop  offset="0.32" style="stop-color:#5E0DCD"/>
	<stop  offset="0.41" style="stop-color:#620DD1"/>
	<stop  offset="0.56" style="stop-color:#650CCE"/>
	<stop  offset="0.69" style="stop-color:#700BC6"/>
	<stop  offset="0.82" style="stop-color:#8108B7"/>
	<stop  offset="0.93" style="stop-color:#9A03A3"/>
	<stop  offset="1" style="stop-color:#AC0094"/>
	<stop  offset="1" style="stop-color:#A81093"/>
	<stop  offset="1" style="stop-color:#94698E"/>
	<stop  offset="1" style="stop-color:#8C8C8C"/>
</linearGradient>
<path class="st3" d="M27.3,42.2c-2.1,3.8-6.9,5.3-10.7,3.2s-5.3-6.9-3.2-10.7c0.5-0.8,1.1-1.6,1.8-2.2C18.9,36,23,39.3,27.3,42.2z"
	/>
<linearGradient id="SVGID_4_" gradientUnits="userSpaceOnUse" x1="63.55" y1="856.42" x2="99.4587" y2="856.42" gradientTransform="matrix(1 0 0 1 -25.95 -814.62)">
	<stop  offset="0" style="stop-color:#00036A"/>
	<stop  offset="2.000000e-02" style="stop-color:#080473"/>
	<stop  offset="9.000000e-02" style="stop-color:#290795"/>
	<stop  offset="0.17" style="stop-color:#420AAF"/>
	<stop  offset="0.24" style="stop-color:#540CC2"/>
	<stop  offset="0.32" style="stop-color:#5E0DCD"/>
	<stop  offset="0.41" style="stop-color:#620DD1"/>
	<stop  offset="0.56" style="stop-color:#650CCE"/>
	<stop  offset="0.69" style="stop-color:#700BC6"/>
	<stop  offset="0.82" style="stop-color:#8108B7"/>
	<stop  offset="0.93" style="stop-color:#9A03A3"/>
	<stop  offset="1" style="stop-color:#AC0094"/>
	<stop  offset="1" style="stop-color:#A81093"/>
	<stop  offset="1" style="stop-color:#94698E"/>
	<stop  offset="1" style="stop-color:#8C8C8C"/>
</linearGradient>
<path class="st4" d="M54.7,58.7c-7.3,0-13.9-4.2-17.1-10.8c1.9-1,3.7-2,5.5-3.1c3.5,5.8,11.1,7.7,17,4.1c5.8-3.5,7.7-11.1,4.1-17
	c-0.5-0.9-1.2-1.7-1.9-2.4c1.4-1.4,2.7-3,4-4.6c8.2,6.4,9.7,18.3,3.3,26.5C66,56,60.5,58.7,54.7,58.7L54.7,58.7z"/>
<linearGradient id="SVGID_5_" gradientUnits="userSpaceOnUse" x1="25.95" y1="838.32" x2="100.45" y2="838.32" gradientTransform="matrix(1 0 0 1 -25.95 -814.62)">
	<stop  offset="0" style="stop-color:#00036A"/>
	<stop  offset="2.000000e-02" style="stop-color:#080473"/>
	<stop  offset="9.000000e-02" style="stop-color:#290795"/>
	<stop  offset="0.17" style="stop-color:#420AAF"/>
	<stop  offset="0.24" style="stop-color:#540CC2"/>
	<stop  offset="0.32" style="stop-color:#5E0DCD"/>
	<stop  offset="0.41" style="stop-color:#620DD1"/>
	<stop  offset="0.56" style="stop-color:#650CCE"/>
	<stop  offset="0.69" style="stop-color:#700BC6"/>
	<stop  offset="0.82" style="stop-color:#8108B7"/>
	<stop  offset="0.93" style="stop-color:#9A03A3"/>
	<stop  offset="1" style="stop-color:#AC0094"/>
	<stop  offset="1" style="stop-color:#A81093"/>
	<stop  offset="1" style="stop-color:#94698E"/>
	<stop  offset="1" style="stop-color:#8C8C8C"/>
</linearGradient>
<path class="st5" d="M74.6,10.4c-8.4,17.1-21.4,28.8-37.2,37l0,0l0,0l0,0l0,0c-15.9-8.2-28.8-20-37.2-37c0.7,0.9,1.6,1.5,2.6,1.8
	C1,10.4,0.3,7.4,0,5.4c1.1,0.7,3,2.2,3.9,2.2C1.4,4,1.2,4.3,0,0c6.7,8.5,13.3,10,22.5,13.3c2.4-0.9,4.8-1.5,7.3-2
	c6.7,5.6,6.4,12,6.4,18.3c-1.9-1.7-3.5-3.7-4.8-5.9c0.9,3,0.7,4.5,1.5,5.6C22.6,23.4,12.9,16.4,4,8.5c7.2,8.3,15.3,17.1,24,24
	c-1.4,0.8-3.6-1-5.5-2c3.7,5.3,8.8,9.5,14.7,12.2l0,0l0,0l0,0l0,0c6-2.6,11.1-6.8,14.8-12.1c-1.9,1-4.1,2.9-5.5,2
	c8.7-6.9,16.8-15.7,24-24c-8.9,7.9-18.7,14.9-29,20.8c0.8-1,0.6-2.5,1.5-5.6c-1.3,2.2-2.9,4.1-4.8,5.9c0-6.4-0.3-12.8,6.4-18.3
	c2.5,0.5,5,1.1,7.4,2C61.2,10,67.6,8.5,74.3,0c-1.2,4.3-1.1,4-3.7,7.6c0.9,0,2.8-1.5,3.9-2.2c-0.3,1.9-1,5-2.6,6.8
	C72.9,12,73.9,11.3,74.6,10.4z"/>
<path class="st6" d="M60.3,32.5c3.9,2.3,5.2,7.4,2.8,11.3c-2.3,3.9-7.4,5.2-11.3,2.8c-1.6-1-2.9-2.5-3.5-4.3"/>
<path class="st6" d="M60.2,32.7c3.8,2.3,5,7.2,2.7,11c-2.3,3.8-7.2,5-11,2.7c-1.5-0.9-2.7-2.4-3.3-4.1"/>
<path class="st6" d="M54,38.2L54,38.2L54,38.2L54,38.2L54,38.2L54,38.2L54,38.2L54,38.2c-0.4,0.8-0.4,1.6-0.1,2.3l0,0
	c0,0.1,0.1,0.1,0.1,0.2l0,0l0,0l0,0c0.1,0.1,0.1,0.1,0.2,0.2c0.4,0.7,1.1,1.1,1.9,1.2h0.1c0.8,0,1.6-0.4,2.1-1.1l0,0l0.1-0.2l0,0
	l0,0l0.1-0.2l0,0c0.2-0.3,0.2-0.7,0.2-1.1c0-0.4-0.1-0.9-0.3-1.3l0,0l0,0l0,0l0,0l0,0c-0.5-0.8-1.3-1.2-2.2-1.2H56
	c-0.3,0-0.6,0.1-0.9,0.2"/>
<path class="st6" d="M55.5,36.9L55.5,36.9c0.2,0,0.4,0.1,0.6,0.1h0.1c0.9,0,1.7-0.5,2.1-1.2l0,0l0,0l0,0l0,0l0,0l0,0l0,0l0,0l0,0
	v-0.1l0,0c0.2-0.4,0.3-0.8,0.3-1.2c0-0.1,0-0.2,0-0.3"/>
<path class="st6" d="M58.7,44.8c0,0.4-0.1,0.8-0.3,1.1l0,0L58.3,46l0,0l0,0c0,0,0,0.1-0.1,0.1l0,0c-0.5,0.7-1.3,1.2-2.2,1.2h0
	c-0.8,0-1.5-0.4-2-1l-0.1-0.2l0,0l0,0l-0.1-0.2l0,0c-0.3-0.8-0.3-1.7,0.2-2.4l0,0c0.7-1.2,2.3-1.6,3.6-0.9c0.4,0.2,0.7,0.5,0.9,0.9
	l0,0C58.6,43.9,58.7,44.4,58.7,44.8z"/>
<path class="st6" d="M53.8,38.4H54c0.1,0,0.2,0,0.4,0l0,0c0.6-0.1,1.2-0.5,1.6-1l0,0c0,0,0,0,0-0.1c0.1,0,0.1-0.1,0.1-0.2
	c0,0,0,0,0-0.1l0,0c0.1-0.1,0.1-0.2,0.1-0.3l0,0c0.1-0.2,0.1-0.4,0.2-0.6"/>
<path class="st6" d="M59.5,33.8L59.5,33.8L59.5,33.8L59.5,33.8h0.2l0,0l0,0l0,0l0,0h0.1c0,0,0.1,0,0.1,0.1l0,0l0,0l0,0l0,0l0,0
	L60,34l0,0l0,0l0,0l0,0l0,0l0,0l0,0l0,0l0,0l0,0v0.1l0,0c0,0,0,0,0,0.1l0,0l0,0l0,0l0,0l0,0l0,0c0.2,0.4,0.3,0.7,0.3,1.1
	c0,0.4-0.1,0.8-0.3,1.1l0,0l0,0l0,0c-0.4,0.6-1,1-1.7,1.2l0,0c-0.1,0-0.2,0-0.3,0h-0.1c-0.1,0-0.2,0-0.3,0l0,0
	c-0.6-0.1-1.1-0.3-1.4-0.8c-0.1-0.1-0.2-0.2-0.3-0.3l0,0l0,0l0,0l0,0c-0.1-0.1-0.1-0.2-0.2-0.4l0,0"/>
<path class="st6" d="M56.5,43.5c0,0.5-0.1,0.9-0.3,1.3l0,0c-0.5,0.8-1.3,1.3-2.2,1.3l0,0c-0.9,0-1.8-0.5-2.2-1.3l0,0
	c-0.2-0.4-0.4-0.8-0.3-1.3c0-1.4,1.2-2.6,2.6-2.6l0,0C55.4,40.9,56.5,42,56.5,43.5z"/>
<circle class="st6" cx="58.3" cy="43.5" r="2.6"/>
<path class="st6" d="M58.4,35.7L58.4,35.7L58.4,35.7L58.4,35.7c0.4,0.8,0.4,1.6,0,2.4l0,0l0,0l0,0l0,0l0,0l0,0l0,0l0,0l0,0l0,0l0,0
	l0,0c-0.5,0.7-1.3,1.1-2.1,1.2H56c-0.8,0-1.5-0.4-2-1l0,0L53.9,38l0,0l0,0l0,0"/>
<path class="st6" d="M57.7,35c0.2,0.2,0.5,0.4,0.6,0.7l0,0l0,0l0,0"/>
<circle class="st6" cx="56.1" cy="42.2" r="2.6"/>
<circle class="st6" cx="58.3" cy="40.9" r="2.6"/>
<path class="st6" d="M53.8,38.3L53.8,38.3c0.2,0,0.3,0,0.4,0l0,0c0.7,0.1,1.3,0.5,1.7,1c0.1,0.1,0.1,0.1,0.2,0.2l0,0l0,0l0,0l0,0
	c0,0.1,0.1,0.2,0.1,0.2c0.3,0.6,0.3,1.4,0,2l0,0c0,0.1-0.1,0.2-0.1,0.3l0,0l0,0c0,0.1-0.1,0.2-0.2,0.2c-0.5,0.6-1.3,1-2.1,1l0,0
	c-0.9,0-1.7-0.5-2.2-1.3l0,0l0,0l0,0c-0.2-0.4-0.3-0.8-0.3-1.3c0-0.2,0-0.5,0.1-0.7l0,0"/>
<path class="st6" d="M51.8,39.8c0.5,0.6,1.2,1,2,1H54c0.8,0,1.5-0.4,2-1l0,0l0,0c0.1-0.1,0.1-0.1,0.2-0.2l0,0l0,0l0,0
	c0.1-0.1,0.1-0.2,0.2-0.3l0,0c0.1-0.3,0.2-0.7,0.2-1s0-0.6-0.1-0.8s-0.1-0.3-0.2-0.4l0,0l0,0l0,0l0,0c-0.1-0.1-0.2-0.2-0.2-0.3l0,0"
	/>
<circle class="st6" cx="58.3" cy="38.3" r="2.6"/>
<path class="st6" d="M63.2,39.6c0,0.4-0.1,0.8-0.3,1.1l0,0c0,0.1-0.1,0.1-0.1,0.2l0,0l0,0l0,0c0,0.1-0.1,0.1-0.1,0.2l0,0
	c-0.5,0.7-1.3,1.1-2.1,1.1l0,0c-0.9,0-1.7-0.5-2.2-1.3l0,0v-0.1l0,0c-0.2-0.4-0.3-0.8-0.3-1.3c0-0.4,0.1-0.8,0.3-1.2l0,0l0,0l0,0
	l0,0l0,0l0,0l0,0c0.5-0.8,1.3-1.2,2.2-1.2h0.1c0.8,0,1.5,0.4,2,1l0,0c0.1,0.1,0.1,0.2,0.2,0.3l0,0l0,0l0,0l0.1,0.2l0,0
	C63.1,38.9,63.2,39.2,63.2,39.6z"/>
<path class="st6" d="M49.7,41.4c0.5,0.5,1.2,0.8,1.9,0.8l0,0c0.9,0,1.7-0.4,2.1-1.1l0,0l0.1-0.1l0,0l0,0l0,0v-0.1l0,0
	c0.2-0.4,0.3-0.7,0.3-1.1c0-0.3-0.1-0.7-0.2-1l0,0c0,0-0.1-0.2-0.1-0.3l0,0l0,0l0,0l0,0l0,0"/>
<path class="st6" d="M60.6,44.8H60l0,0h-0.1l0,0h-0.1h-0.1l0,0l0,0h-0.1h-0.1l0,0h-0.1l0,0l0,0h-0.1l-0.1,0.1h-0.1
	c-0.2,0.1-0.3,0.2-0.5,0.4v0.1v0.1l-0.1,0.2l0,0l-0.1,0.1l0,0l0,0l0,0c0,0,0,0.1-0.1,0.1l0,0V46l0.2,0l-0.1,0.1l0,0l0,0l0,0l0,0l0,0
	l0,0l0,0l0,0l-0.1,0.1l0,0l0,0h-0.1h-0.1L58,46.3h-0.1H58h-0.1h-0.1h-0.1l0,0l0,0h-0.1l0,0H57l0,0c-0.1-0.1-0.1-0.2-0.1-0.3
	c-0.3-0.6-0.3-1.4,0-2c0-0.1,0.1-0.2,0.1-0.2l0,0l0,0l0,0c0-0.1,0.1-0.2,0.2-0.2c0.5-0.6,1.3-1,2.1-1l0,0c0.9,0,1.6,0.5,2.1,1.2l0,0
	l0.1,0.1l0,0L60.6,44.8z"/>
<path class="st6" d="M56.5,46.1c0,0.3-0.1,0.7-0.2,1c0,0.1-0.1,0.2-0.1,0.3l0,0h-0.8l0,0l0,0h-0.1h-0.1h-0.1H55l0,0h-0.1l0,0l0,0
	h-0.1l-0.1-0.1l0,0l0,0l0,0l0,0l0,0l-0.1-0.1l0,0l0,0l0,0l0,0l0,0l0,0l0,0l0,0l0,0l-0.1-0.1l0,0l0,0V47l0,0l0,0l0,0l0,0l0,0l0,0l0,0
	l0,0l0,0l0,0l0,0l0,0l0,0l0,0c-0.9,0-1.7-0.5-2.2-1.3l0,0c0,0,0-0.1,0.1-0.1c0.5-0.7,1.3-1.2,2.1-1.2l0,0c0.8,0,1.6,0.4,2.1,1
	l0.2,0.2l0,0l0,0l0,0c0,0.1,0.1,0.2,0.1,0.2C56.8,46,56.7,46.1,56.5,46.1z"/>
<path class="st6" d="M58.4,46.1c-0.5,0.8-1.3,1.3-2.2,1.3h-0.8h-0.1l0,0h-0.1l0,0h-0.1l0,0H55h0l0,0l0,0l0,0h-0.1l0,0h-0.1l-0.1-0.1
	h-0.1l0,0l0,0l0,0l0,0h-0.1l0,0l0,0l0,0l0,0l-0.1-0.1l-0.1-0.1l0,0l0,0V47l0,0l0,0l0,0l0,0v0l0,0l0,0l0,0l0,0l0,0l0,0l0.1-0.1
	c0.5-0.7,1.3-1.2,2.2-1.2h0.1C57.3,45.7,57.9,45.8,58.4,46.1z"/>
<path class="st6" d="M62.9,43.5L62.9,43.5L62.9,43.5c-0.1-0.1-0.1-0.1-0.2-0.2l0,0c-0.5-0.7-1.3-1.1-2.1-1.1l0,0
	c-0.9,0-1.7,0.4-2.2,1.1l0,0l-0.1,0.1l0,0l0,0l0,0c0,0.1-0.1,0.1-0.1,0.2l0,0c-0.4,0.7-0.4,1.6,0,2.3l0,0V46l0,0l0,0l0,0l0,0
	l0.1-0.1l0,0l0.1-0.2v-0.1v-0.1c0.1-0.2,0.3-0.3,0.5-0.4H59l0.1-0.1h0.1l0,0l0,0h0.1l0,0h0.1h0.1l0,0l0,0h0.1h0.1l0,0H60h0.1h0.5
	l0,0c0.8,0,1.6-0.4,2.1-1.1l0,0l0.1-0.1v-0.1l0,0"/>
<path class="st6" d="M52.1,39.6c0.7,0.1,1.2,0.5,1.6,1l0,0c0,0.1,0.1,0.1,0.1,0.2l0,0c0,0.1,0.1,0.2,0.1,0.3l0,0
	c0.1,0.3,0.2,0.7,0.2,1c0,0.4-0.1,0.8-0.3,1.2l0,0c0,0,0,0.1-0.1,0.1l0,0l0,0l0,0l-0.1,0.1l0,0c-0.5,0.7-1.3,1.1-2.1,1.1l0,0
	c-0.9,0-1.7-0.5-2.2-1.3l0,0l0,0l-0.1-0.1l-0.1-0.1V43l0,0l0,0l0,0v-0.1l0,0l0,0l0,0C49,42.7,49,42.4,49,42.2c0-0.1,0-0.2,0-0.3
	c0,0,0,0,0-0.1"/>
<path class="st6" d="M52.3,39.5L52.3,39.5c0.6-0.2,1.2-0.5,1.5-1.1l0,0l0,0l0,0l0,0l0,0l0,0l0,0l0,0v-0.1l0,0"/>
<path class="st6" d="M63.2,42.2c0,0.4-0.1,0.8-0.3,1.1l0,0l-0.1,0.2l0,0l0,0v0.1l-0.1,0.1l0,0c-0.5,0.7-1.3,1.1-2.1,1.1l0,0
	c-0.9,0-1.7-0.5-2.2-1.3l0,0l0,0l0,0c-0.4-0.7-0.4-1.6-0.1-2.4l0,0c0-0.1,0.1-0.1,0.1-0.2l0,0c0-0.1,0.1-0.1,0.1-0.2l0,0
	c0.5-0.7,1.3-1.1,2.1-1.1h0.1c0.8,0,1.5,0.4,2,1l0,0c0.1,0.1,0.1,0.2,0.2,0.3l0,0l0,0l0.1,0.3C63.2,41.5,63.2,41.8,63.2,42.2z"/>
<path class="st6" d="M63.2,37c0,0.4-0.1,0.8-0.3,1.1l0,0c0,0.1-0.1,0.1-0.1,0.2l0,0l0,0l-0.1,0.2l0,0c-0.5,0.7-1.3,1.1-2.1,1.1h-0.1
	c-0.9,0-1.7-0.4-2.2-1.2l0,0l0,0l0,0l0,0l0,0C58.2,38,58,37.6,58,37.1c0-0.4,0.1-0.8,0.3-1.2l0,0l0,0l0,0l0,0v-0.1
	c0.4-0.9,1.3-1.4,2.2-1.5h0.1c0.9,0,1.7,0.5,2.2,1.3l0,0v0.1l0,0C63.1,36.1,63.2,36.5,63.2,37z"/>
<path class="st6" d="M54.2,44.8c0,0.4-0.1,0.8-0.3,1.2l-0.1,0.1l0,0l0,0l0,0l0,0c-0.9,0-1.7-0.5-2.2-1.3l0,0c-0.9,0-1.7-0.5-2.2-1.3
	l0,0l0,0l0.1-0.1c0.5-0.7,1.3-1.2,2.2-1.2l0,0c0.8,0,1.6,0.4,2.1,1.1c0,0.1,0.1,0.1,0.1,0.2l0,0c0,0.1,0.1,0.2,0.1,0.3
	C54.2,44.1,54.3,44.4,54.2,44.8z"/>
<path class="st6" d="M58.4,46.1L58.4,46.1c-0.5,0.8-1.3,1.3-2.2,1.3H56v-0.1c0.5-0.8,1.3-1.3,2.2-1.3L58.4,46.1z"/>
<path class="st6" d="M58.4,46.1C58.4,46,58.5,46,58.4,46.1L58.4,46.1L58.4,46.1L58.4,46.1C58.4,46.1,58.4,46.2,58.4,46.1
	C58.3,46.2,58.3,46.1,58.4,46.1z"/>
<path class="st6" d="M53.7,45.8l0.1,0.2c-0.9,0-1.8-0.5-2.2-1.3C52.5,44.8,53.3,45.2,53.7,45.8z"/>
<path class="st6" d="M54,46.4L54,46.4L54,46.4L54,46.4L54,46.4L54,46.4L54,46.4L54,46.4L54,46.4L54,46.4L54,46.4L54,46.4
	C54.1,46.3,54.1,46.4,54,46.4z"/>
<path class="st6" d="M62.9,43.5L62.9,43.5L62.9,43.5L62.9,43.5L62.9,43.5L62.9,43.5c-0.6,0.8-1.4,1.2-2.2,1.2l0,0l-0.1-0.1l0,0
	c-0.2-0.4-0.3-0.7-0.3-1.1c0-0.4,0.1-0.9,0.3-1.3l0,0l0,0l0,0c0.4-0.7,1.1-1.2,1.9-1.3h0.3l0,0l0,0"/>
<path class="st6" d="M62.9,40.9L62.9,40.9h-0.3c-0.7-0.1-1.4-0.5-1.8-1.1l0,0c0-0.1-0.1-0.1-0.1-0.2l0,0l0,0c0-0.1-0.1-0.2-0.1-0.2
	l0,0c-0.1-0.3-0.2-0.7-0.2-1c0-0.5,0.1-0.9,0.3-1.3l0,0l0,0c0.5-0.8,1.3-1.2,2.2-1.3H63"/>
<path class="st6" d="M62.9,43.5L62.9,43.5h-0.3l0,0c-0.7-0.1-1.4-0.5-1.8-1.1l0,0c-0.1-0.1-0.1-0.1-0.1-0.2l0,0L60.5,42l0,0
	c-0.1-0.3-0.2-0.7-0.2-1c0-0.5,0.1-0.9,0.3-1.3l0,0l0,0l0,0c0.4-0.8,1.3-1.3,2.2-1.3h0.1"/>
<path class="st6" d="M62.9,40.9L62.9,40.9h-0.3c-0.7-0.1-1.4-0.5-1.8-1.1l0,0c0-0.1-0.1-0.1-0.1-0.2l0,0l0,0c0-0.1-0.1-0.2-0.1-0.2
	l0,0c-0.1-0.3-0.2-0.7-0.2-1c0-0.5,0.1-0.9,0.3-1.3l0,0l0,0c0.5-0.8,1.3-1.2,2.2-1.3H63"/>
<path class="st6" d="M62.9,38.4L62.9,38.4c-0.9,0-1.7-0.4-2.2-1.1l0,0c0-0.1-0.1-0.1-0.1-0.2l0,0l0,0l0,0l-0.1-0.2l0,0
	c-0.1-0.3-0.2-0.7-0.2-1c0-0.4,0.1-0.9,0.3-1.3l0,0l0,0l0,0c0.9,0,1.7,0.5,2.2,1.3l0,0V36l0,0"/>
<path class="st6" d="M63,38.1L63,38.1l-0.1,0.2l0,0l0,0l0,0l-0.1,0.2l0,0c-0.2,0.4-0.3,0.7-0.3,1.1c0,0.3,0.1,0.7,0.2,1l0,0
	c0,0.1,0.1,0.2,0.1,0.3l0,0c0.1,0.1,0.1,0.2,0.2,0.3"/>
<path class="st6" d="M62.8,43.5L62.8,43.5L62.8,43.5L62.8,43.5l-0.1-0.2l0,0c-0.1-0.3-0.2-0.7-0.2-1.1c0-0.4,0.1-0.8,0.3-1.1l0,0
	l0.1-0.2l0,0l0,0l0,0l0.1-0.2l0,0"/>
<path class="st6" d="M62.8,43.5c0-0.1,0.1-0.1,0.1-0.2L62.8,43.5L62.8,43.5L62.8,43.5L62.8,43.5l-0.1,0.2
	C62.8,43.6,62.8,43.5,62.8,43.5L62.8,43.5L62.8,43.5L62.8,43.5z"/>
<path class="st6" d="M63,38.6L63,38.6l-0.2-0.2l0,0l0,0c-0.1-0.1-0.1-0.2-0.2-0.3l0,0c-0.1-0.3-0.2-0.7-0.2-1c0-0.4,0.1-0.8,0.3-1.2
	l0,0v-0.1l0,0c0,0,0,0,0-0.1l0,0v0.1l0,0"/>
<path class="st6" d="M62.9,43.5L62.9,43.5L62.9,43.5L62.9,43.5L62.9,43.5L62.9,43.5c-0.6,0.8-1.4,1.2-2.2,1.2
	c0.4-0.7,1.1-1.2,1.9-1.3l0,0L62.9,43.5L62.9,43.5L62.9,43.5z"/>
<path class="st6" d="M59.4,33.4L59.4,33.4l0.2,0.1l0,0h0.1l0,0l0,0c0.1,0,0.1,0.1,0.2,0.1l0,0l0,0l0,0l0,0l0,0l0,0l0.1,0.1l0,0l0,0
	l0.1,0.1l0,0v0.1l0,0l0,0l0,0l0,0l0,0V34l0,0v0.1l0,0l0,0h0.1c0.9,0,1.7,0.5,2.2,1.3l0,0v0.1l0,0c0,0,0,0.1-0.1,0.1l0,0
	c-0.5,0.7-1.3,1.2-2.1,1.2H60c-0.9,0-1.7-0.5-2.2-1.2l0,0l0,0c-0.2-0.3-0.3-0.6-0.3-1"/>
<path class="st6" d="M62.9,35.7L62.9,35.7L62.9,35.7c-1,0-1.8-0.4-2.3-1.2l0,0l0,0h0.1C61.5,34.5,62.4,34.9,62.9,35.7L62.9,35.7z"/>
<path class="st6" d="M59,33.8c0.4,0.4,1,0.6,1.6,0.6l0,0l0,0l0,0v-0.1l0,0v-0.1l0,0l0,0l0,0l0,0l0,0v-0.1l0,0L60.5,34l0,0l0,0
	l-0.1-0.1l0,0l0,0l0,0l0,0l0,0l0,0c0,0-0.1-0.1-0.2-0.1l0,0l0,0h-0.1l0,0L60,33.9l0,0"/>
<path class="st6" d="M49,41.8C49.1,41.9,49.1,41.9,49,41.8c0,0.2,0,0.3,0,0.3c0,0.2,0,0.5,0.1,0.7l0,0l0,0l0,0v0.1l0,0l0,0l0,0V43
	c0,0.1,0,0.1,0.1,0.1c0,0.1,0,0.1,0.1,0.1l0,0"/>
<path class="st6" d="M49.4,43.5L49.4,43.5c0.1,0,0.2,0,0.3,0l0,0c0.7-0.1,1.3-0.5,1.7-1l0,0l0,0c0-0.1,0.1-0.1,0.2-0.3l0,0
	c0-0.1,0.1-0.1,0.1-0.2l0,0l0,0c0.1-0.3,0.2-0.7,0.2-1c0-0.4-0.1-0.7-0.2-1.1"/>
<path class="st6" d="M49,41.8c0,0.1,0,0.2,0,0.3c0,0.2,0,0.5,0.1,0.7l0,0l0,0l0,0v0.1l0,0l0,0l0,0V43c0,0.1,0,0.1,0.1,0.1
	c0,0.1,0,0.1,0.1,0.1l0,0"/>
<path class="st6" d="M49,41.8C49.1,41.9,49.1,41.9,49,41.8c0,0.2,0,0.3,0,0.3c0,0.2,0,0.5,0.1,0.7l0,0l0,0l0,0v0.1l0,0l0,0l0,0V43
	c0,0.1,0,0.1,0.1,0.1c0,0.1,0,0.1,0.1,0.1l0,0"/>
<path class="st6" d="M49.4,43.5L49.4,43.5c0.5,0.8,1.3,1.2,2.2,1.3l0,0l0.1-0.1c0.2-0.4,0.3-0.8,0.3-1.2s-0.1-0.9-0.3-1.3l0,0l0,0
	l0,0c-0.3-0.5-0.8-0.9-1.4-1.1"/>
<path class="st6" d="M49.4,43.5L49.4,43.5c0.5,0.8,1.3,1.2,2.2,1.3l0,0c-0.4-0.7-1.1-1.2-1.9-1.3l0,0H49.4L49.4,43.5"/>
<path class="st6" d="M49.4,43.5L49.4,43.5L49.4,43.5"/>
<path class="st6" d="M49,41.8C49.1,41.9,49.1,41.9,49,41.8c0,0.2,0,0.3,0,0.3c0,0.2,0,0.5,0.1,0.7l0,0l0,0l0,0v0.1l0,0l0,0l0,0V43
	c0,0.1,0,0.1,0.1,0.1c0,0.1,0,0.1,0.1,0.1l0,0"/>
<path class="st6" d="M49.4,43.5L49.4,43.5L49.4,43.5L49.4,43.5L49.4,43.5L49.4,43.5c0.3-0.4,0.4-0.8,0.4-1.2c0-0.3,0-0.5-0.1-0.8"/>
</svg>
